<svg width="94" height="49" viewBox="0 0 94 49" fill="none" xmlns="http://www.w3.org/2000/svg">
<path fill-rule="evenodd" clip-rule="evenodd" d="M87.5594 24.1522C87.5594 23.0523 87.3664 22.0268 86.9802 21.0755C86.5941 20.1243 86.0669 19.292 85.3987 18.5786C84.7303 17.8651 83.9507 17.3078 83.0596 16.9065C82.1686 16.5052 81.2181 16.3045 80.2082 16.3045C79.1984 16.3045 78.248 16.5052 77.3569 16.9065C76.4659 17.3078 75.6862 17.8651 75.0179 18.5786C74.3496 19.292 73.8224 20.1243 73.4363 21.0755C73.0502 22.0268 72.8571 23.0523 72.8571 24.1522C72.8571 25.2521 73.0502 26.2776 73.4363 27.2289C73.8224 28.18 74.3496 29.0124 75.0179 29.7258C75.6862 30.4392 76.4659 30.9966 77.3569 31.3979C78.248 31.7992 79.1984 31.9998 80.2082 31.9998C81.2181 31.9998 82.1686 31.7992 83.0596 31.3979C83.9507 30.9966 84.7303 30.4392 85.3987 29.7258C86.0669 29.0124 86.5941 28.18 86.9802 27.2289C87.3664 26.2776 87.5594 25.2521 87.5594 24.1522ZM93.9749 24.1522C93.9749 26.0843 93.6185 27.8753 92.9057 29.5251C92.1928 31.175 91.2127 32.6019 89.9652 33.8057C88.7177 35.0096 87.255 35.9609 85.5768 36.6594C83.8986 37.358 82.1092 37.7072 80.2082 37.7072C78.3073 37.7072 76.5253 37.358 74.8619 36.6594C73.1987 35.9609 71.7433 35.0022 70.4958 33.7834C69.2483 32.5647 68.2682 31.1303 67.5554 29.4805C66.8426 27.8307 66.4861 26.0547 66.4861 24.1522C66.4861 22.2794 66.85 20.5182 67.5776 18.8684C68.3053 17.2186 69.2929 15.7769 70.5404 14.5433C71.7878 13.3096 73.2432 12.3435 74.9065 11.645C76.5697 10.9464 78.337 10.5971 80.2082 10.5971C82.1092 10.5971 83.8986 10.9464 85.5768 11.645C87.255 12.3435 88.7177 13.2947 89.9652 14.4987C91.2127 15.7026 92.1928 17.1368 92.9057 18.8015C93.6185 20.4662 93.9749 22.2497 93.9749 24.1522ZM64.2585 36.9047C63.7535 37.1425 63.1818 37.3356 62.5433 37.4843C61.9046 37.6329 61.2438 37.7072 60.5607 37.7072C59.6102 37.7072 58.6969 37.5809 57.8206 37.3283C56.9445 37.0755 56.1797 36.6669 55.5263 36.102C54.8728 35.5372 54.353 34.8016 53.9669 33.8949C53.5808 32.9882 53.3877 31.8958 53.3877 30.6176V0.0294876H59.9369V29.5028C59.9369 30.573 60.1523 31.3088 60.5829 31.71C61.0136 32.1113 61.5259 32.312 62.12 32.312C62.8625 32.312 63.5754 32.089 64.2585 31.6432V36.9047ZM50.4918 11.2214L38.9081 41.854C38.0469 44.1429 36.9182 45.7928 35.5222 46.8034C34.1262 47.8141 32.4629 48.3195 30.5323 48.3195C30.2354 48.3195 29.9086 48.2971 29.5522 48.2525C29.1957 48.208 28.8542 48.141 28.5275 48.0519L26.389 42.077C26.8939 42.3148 27.4137 42.5006 27.9483 42.6344C28.4829 42.7681 28.9878 42.835 29.4631 42.835C30.4729 42.835 31.3937 42.6046 32.2253 42.1438C33.0569 41.6831 33.6956 40.8285 34.1411 39.58L35.0321 36.9938L25.097 11.2214H32.0917L38.0171 27.8085L43.5862 11.2213H50.4918V11.2214ZM23.5376 7.34214H6.78592V15.6357H23.3149V21.2539H6.78592V37.0385H0.0139618V1.41177H23.5376V7.34214Z" fill="black"/>
</svg>
