<svg width="76" height="39" viewBox="0 0 76 39" fill="none" xmlns="http://www.w3.org/2000/svg">
<path fill-rule="evenodd" clip-rule="evenodd" d="M70.8108 19.482C70.8108 18.5937 70.6547 17.7655 70.3423 16.9972C70.03 16.229 69.6036 15.5568 69.0631 14.9806C68.5225 14.4044 67.8919 13.9543 67.1712 13.6302C66.4505 13.3061 65.6817 13.144 64.8649 13.144C64.0481 13.144 63.2793 13.3061 62.5585 13.6302C61.8378 13.9543 61.2072 14.4044 60.6667 14.9806C60.1261 15.5568 59.6997 16.229 59.3874 16.9972C59.0751 17.7655 58.9189 18.5937 58.9189 19.482C58.9189 20.3703 59.0751 21.1985 59.3874 21.9667C59.6997 22.735 60.1261 23.4072 60.6667 23.9834C61.2072 24.5596 61.8378 25.0097 62.5585 25.3338C63.2793 25.6579 64.0481 25.8199 64.8649 25.8199C65.6817 25.8199 66.4505 25.6579 67.1712 25.3338C67.8919 25.0097 68.5225 24.5596 69.0631 23.9834C69.6036 23.4072 70.03 22.735 70.3423 21.9667C70.6547 21.1985 70.8108 20.3703 70.8108 19.482ZM76 19.482C76 21.0425 75.7117 22.4889 75.1351 23.8213C74.5586 25.1537 73.7658 26.3061 72.7568 27.2784C71.7477 28.2507 70.5646 29.0189 69.2072 29.5831C67.8498 30.1473 66.4024 30.4294 64.8649 30.4294C63.3273 30.4294 61.8859 30.1473 60.5405 29.5831C59.1952 29.0189 58.018 28.2447 57.009 27.2604C56 26.2761 55.2072 25.1177 54.6307 23.7853C54.0541 22.4529 53.7658 21.0185 53.7658 19.482C53.7658 17.9696 54.0601 16.5471 54.6486 15.2147C55.2372 13.8823 56.036 12.7179 57.045 11.7216C58.054 10.7253 59.2312 9.94507 60.5766 9.38087C61.9219 8.81672 63.3513 8.53462 64.8649 8.53462C66.4024 8.53462 67.8498 8.81672 69.2072 9.38087C70.5646 9.94507 71.7477 10.7133 72.7568 11.6856C73.7658 12.6579 74.5586 13.8162 75.1351 15.1606C75.7117 16.5051 76 17.9455 76 19.482ZM51.964 29.7811C51.5555 29.9732 51.0931 30.1293 50.5766 30.2493C50.0601 30.3694 49.5255 30.4294 48.973 30.4294C48.2042 30.4294 47.4655 30.3273 46.7567 30.1233C46.0481 29.9192 45.4294 29.5891 44.9009 29.133C44.3724 28.6769 43.9519 28.0826 43.6396 27.3504C43.3273 26.6182 43.1712 25.7359 43.1712 24.7036V0H48.4685V23.8033C48.4685 24.6676 48.6427 25.2618 48.991 25.5859C49.3394 25.91 49.7537 26.072 50.2342 26.072C50.8348 26.072 51.4114 25.892 51.964 25.5319V29.7812V29.7811ZM40.8288 9.03878L31.4594 33.7784C30.7628 35.627 29.8498 36.9594 28.7207 37.7756C27.5916 38.5919 26.2462 39 24.6847 39C24.4445 39 24.1802 38.982 23.8919 38.946C23.6036 38.91 23.3273 38.856 23.0631 38.784L21.3333 33.9585C21.7417 34.1506 22.1622 34.3005 22.5946 34.4086C23.027 34.5166 23.4354 34.5706 23.8198 34.5706C24.6366 34.5706 25.3814 34.3846 26.054 34.0125C26.7267 33.6404 27.2432 32.9502 27.6036 31.9418L28.3243 29.8532L20.2883 9.03878H25.946L30.7387 22.4349L35.2432 9.03878H40.8288ZM19.027 5.90582H5.47747V12.6039H18.8468V17.1413H5.47747V29.8892H0V1.11632H19.027V5.90582Z" fill="white"/>
</svg>
